<svg xmlns="http://www.w3.org/2000/svg" xmlns:xlink="http://www.w3.org/1999/xlink" viewBox="0 0 588 252"><defs><style>.cls-1{fill:url(#linear-gradient);}.cls-2{fill:none;stroke:#d8c3fe;stroke-width:0.75px;}.cls-3{fill:#020202;}</style><linearGradient id="linear-gradient" x1="165.94" y1="-95.81" x2="422.06" y2="347.81" gradientUnits="userSpaceOnUse"><stop offset="0" stop-color="#191d1f"/><stop offset="1" stop-color="#101216"/></linearGradient></defs><title>nv.png</title><g id="Layer_2" data-name="Layer 2"><g id="Layer_1-2" data-name="Layer 1"><rect class="cls-1" width="588" height="252"/><path d="M315.85,168.4c-1.8-2.3-4.5-3.5-8-3.5h-.5a12,12,0,0,1-7.8-2.6,8,8,0,0,1-3.2-6.4V122.7c0-6.7-2.8-12.4-8.4-17s-12.5-6.9-20.7-6.9-15.1,2.3-20.7,6.9-8.4,10.3-8.4,17v22.4a7.36,7.36,0,0,0,2.5,5.9,9.38,9.38,0,0,0,6.5,2.3,9.64,9.64,0,0,0,6.6-2.3,7.64,7.64,0,0,0,2.6-6V119a8.38,8.38,0,0,1,3.1-6.7,10.79,10.79,0,0,1,7.5-2.7,10.51,10.51,0,0,1,7.4,2.8,8.85,8.85,0,0,1,3.1,6.7v35.3a23.74,23.74,0,0,0,8,18.2c5.3,4.9,12,7.3,19.9,7.3h2.7a10,10,0,0,0,6.6-2.1c2.1-1.7,2.9-3.9,2.5-6.9A10,10,0,0,0,315.85,168.4Z"/><path d="M363.85,71.1a9.76,9.76,0,0,0-6.4-2.2q-6,0-8.1,5.4l-17.8,46.6-17.7-46.6q-2.1-5.4-8.1-5.4a9.76,9.76,0,0,0-6.4,2.2,6.86,6.86,0,0,0-2.7,5.5,9.18,9.18,0,0,0,.5,2.8l26.2,68.5c1.7,4.5,4.5,6.7,8.3,6.7s6.6-2.2,8.3-6.7l26-68.5a8.78,8.78,0,0,0,.7-2.8A7.43,7.43,0,0,0,363.85,71.1Z"/><path class="cls-2" d="M315.85,168.4c-1.8-2.3-4.5-3.5-8-3.5h-.5a12,12,0,0,1-7.8-2.6,8,8,0,0,1-3.2-6.4V122.7c0-6.7-2.8-12.4-8.4-17s-12.5-6.9-20.7-6.9-15.1,2.3-20.7,6.9-8.4,10.3-8.4,17v22.4a7.36,7.36,0,0,0,2.5,5.9,9.38,9.38,0,0,0,6.5,2.3,9.64,9.64,0,0,0,6.6-2.3,7.64,7.64,0,0,0,2.6-6V119a8.38,8.38,0,0,1,3.1-6.7,10.79,10.79,0,0,1,7.5-2.7,10.51,10.51,0,0,1,7.4,2.8,8.85,8.85,0,0,1,3.1,6.7v35.3a23.74,23.74,0,0,0,8,18.2c5.3,4.9,12,7.3,19.9,7.3h2.7a10,10,0,0,0,6.6-2.1c2.1-1.7,2.9-3.9,2.5-6.9A10,10,0,0,0,315.85,168.4Z"/><path class="cls-2" d="M363.85,71.1a9.76,9.76,0,0,0-6.4-2.2q-6,0-8.1,5.4l-17.8,46.6-17.7-46.6q-2.1-5.4-8.1-5.4a9.76,9.76,0,0,0-6.4,2.2,6.86,6.86,0,0,0-2.7,5.5,9.18,9.18,0,0,0,.5,2.8l26.2,68.5c1.7,4.5,4.5,6.7,8.3,6.7s6.6-2.2,8.3-6.7l26-68.5a8.78,8.78,0,0,0,.7-2.8A7.43,7.43,0,0,0,363.85,71.1Z"/><path class="cls-3" d="M315.85,168.4c-1.8-2.3-4.5-3.5-8-3.5h-.5a12,12,0,0,1-7.8-2.6,8,8,0,0,1-3.2-6.4V122.7c0-6.7-2.8-12.4-8.4-17s-12.5-6.9-20.7-6.9-15.1,2.3-20.7,6.9-8.4,10.3-8.4,17v22.4a7.36,7.36,0,0,0,2.5,5.9,9.38,9.38,0,0,0,6.5,2.3,9.64,9.64,0,0,0,6.6-2.3,7.64,7.64,0,0,0,2.6-6V119a8.38,8.38,0,0,1,3.1-6.7,10.79,10.79,0,0,1,7.5-2.7,10.51,10.51,0,0,1,7.4,2.8,8.85,8.85,0,0,1,3.1,6.7v35.3a23.74,23.74,0,0,0,8,18.2c5.3,4.9,12,7.3,19.9,7.3h2.7a10,10,0,0,0,6.6-2.1c2.1-1.7,2.9-3.9,2.5-6.9A10,10,0,0,0,315.85,168.4Z"/><path class="cls-3" d="M363.85,71.1a9.76,9.76,0,0,0-6.4-2.2q-6,0-8.1,5.4l-17.8,46.6-17.7-46.6q-2.1-5.4-8.1-5.4a9.76,9.76,0,0,0-6.4,2.2,6.86,6.86,0,0,0-2.7,5.5,9.18,9.18,0,0,0,.5,2.8l26.2,68.5c1.7,4.5,4.5,6.7,8.3,6.7s6.6-2.2,8.3-6.7l26-68.5a8.78,8.78,0,0,0,.7-2.8A7.43,7.43,0,0,0,363.85,71.1Z"/><path d="M315,168.8c-1.8-2.3-4.5-3.5-8.1-3.5h-.5a12,12,0,0,1-7.8-2.6,8,8,0,0,1-3.2-6.4V123.1c0-6.7-2.8-12.4-8.5-17s-12.7-6.9-20.9-6.9-15.2,2.3-20.9,6.9-8.5,10.3-8.5,17v22.4a7.36,7.36,0,0,0,2.5,5.9,9.64,9.64,0,0,0,6.6,2.3,10.08,10.08,0,0,0,6.7-2.3,7.64,7.64,0,0,0,2.6-6v-26a8.38,8.38,0,0,1,3.1-6.7,11.22,11.22,0,0,1,7.6-2.7,10.35,10.35,0,0,1,7.4,2.8,8.52,8.52,0,0,1,3.1,6.7v35.3a23.49,23.49,0,0,0,8.1,18.2c5.4,4.9,12.1,7.3,20.1,7.3h2.7a10.33,10.33,0,0,0,6.7-2.1c2.1-1.7,2.9-3.9,2.5-6.9A7.45,7.45,0,0,0,315,168.8Z"/><path d="M363.35,71.4a9.85,9.85,0,0,0-6.5-2.2c-4,0-6.8,1.8-8.2,5.4l-18,46.6-17.8-46.6c-1.4-3.6-4.1-5.4-8.2-5.4a10,10,0,0,0-6.5,2.2,7,7,0,0,0-2.8,5.5,9.18,9.18,0,0,0,.5,2.8l26.4,68.5c1.7,4.5,4.6,6.7,8.4,6.7s6.7-2.2,8.4-6.7l26.3-68.5a8.78,8.78,0,0,0,.7-2.8A6.45,6.45,0,0,0,363.35,71.4Z"/><path class="cls-2" d="M315,168.8c-1.8-2.3-4.5-3.5-8.1-3.5h-.5a12,12,0,0,1-7.8-2.6,8,8,0,0,1-3.2-6.4V123.1c0-6.7-2.8-12.4-8.5-17s-12.7-6.9-20.9-6.9-15.2,2.3-20.9,6.9-8.5,10.3-8.5,17v22.4a7.36,7.36,0,0,0,2.5,5.9,9.64,9.64,0,0,0,6.6,2.3,10.08,10.08,0,0,0,6.7-2.3,7.64,7.64,0,0,0,2.6-6v-26a8.38,8.38,0,0,1,3.1-6.7,11.22,11.22,0,0,1,7.6-2.7,10.35,10.35,0,0,1,7.4,2.8,8.52,8.52,0,0,1,3.1,6.7v35.3a23.49,23.49,0,0,0,8.1,18.2c5.4,4.9,12.1,7.3,20.1,7.3h2.7a10.33,10.33,0,0,0,6.7-2.1c2.1-1.7,2.9-3.9,2.5-6.9A7.45,7.45,0,0,0,315,168.8Z"/><path class="cls-2" d="M363.35,71.4a9.85,9.85,0,0,0-6.5-2.2c-4,0-6.8,1.8-8.2,5.4l-18,46.6-17.8-46.6c-1.4-3.6-4.1-5.4-8.2-5.4a10,10,0,0,0-6.5,2.2,7,7,0,0,0-2.8,5.5,9.18,9.18,0,0,0,.5,2.8l26.4,68.5c1.7,4.5,4.6,6.7,8.4,6.7s6.7-2.2,8.4-6.7l26.3-68.5a8.78,8.78,0,0,0,.7-2.8A6.45,6.45,0,0,0,363.35,71.4Z"/><path class="cls-3" d="M315,168.8c-1.8-2.3-4.5-3.5-8.1-3.5h-.5a12,12,0,0,1-7.8-2.6,8,8,0,0,1-3.2-6.4V123.1c0-6.7-2.8-12.4-8.5-17s-12.7-6.9-20.9-6.9-15.2,2.3-20.9,6.9-8.5,10.3-8.5,17v22.4a7.36,7.36,0,0,0,2.5,5.9,9.64,9.64,0,0,0,6.6,2.3,10.08,10.08,0,0,0,6.7-2.3,7.64,7.64,0,0,0,2.6-6v-26a8.38,8.38,0,0,1,3.1-6.7,11.22,11.22,0,0,1,7.6-2.7,10.35,10.35,0,0,1,7.4,2.8,8.52,8.52,0,0,1,3.1,6.7v35.3a23.49,23.49,0,0,0,8.1,18.2c5.4,4.9,12.1,7.3,20.1,7.3h2.7a10.33,10.33,0,0,0,6.7-2.1c2.1-1.7,2.9-3.9,2.5-6.9A7.45,7.45,0,0,0,315,168.8Z"/><path class="cls-3" d="M363.35,71.4a9.85,9.85,0,0,0-6.5-2.2c-4,0-6.8,1.8-8.2,5.4l-18,46.6-17.8-46.6c-1.4-3.6-4.1-5.4-8.2-5.4a10,10,0,0,0-6.5,2.2,7,7,0,0,0-2.8,5.5,9.18,9.18,0,0,0,.5,2.8l26.4,68.5c1.7,4.5,4.6,6.7,8.4,6.7s6.7-2.2,8.4-6.7l26.3-68.5a8.78,8.78,0,0,0,.7-2.8A6.45,6.45,0,0,0,363.35,71.4Z"/><path d="M314.05,169.1a10,10,0,0,0-8.1-3.5h-.5a12.31,12.31,0,0,1-7.9-2.6,7.77,7.77,0,0,1-3.2-6.4V123.4c0-6.7-2.9-12.4-8.6-17s-12.8-6.9-21.1-6.9-15.4,2.3-21.1,6.9-8.6,10.3-8.6,17v22.4a7.36,7.36,0,0,0,2.5,5.9,9.72,9.72,0,0,0,6.7,2.3,9.9,9.9,0,0,0,6.7-2.3,7.64,7.64,0,0,0,2.6-6v-26a8.38,8.38,0,0,1,3.1-6.7,11.22,11.22,0,0,1,7.6-2.7,10.76,10.76,0,0,1,7.5,2.8,8.52,8.52,0,0,1,3.1,6.7v35.3a23.26,23.26,0,0,0,8.2,18.2c5.4,4.9,12.2,7.3,20.3,7.3H306a10.33,10.33,0,0,0,6.7-2.1c2.1-1.7,2.9-3.9,2.5-6.9A4.72,4.72,0,0,0,314.05,169.1Z"/><path d="M363,71.8a10,10,0,0,0-6.5-2.2c-4.1,0-6.8,1.8-8.3,5.4L330,121.6,312,75c-1.4-3.6-4.2-5.4-8.3-5.4a9.85,9.85,0,0,0-6.5,2.2,6.69,6.69,0,0,0-2.8,5.5,9.18,9.18,0,0,0,.5,2.8l26.6,68.5c1.8,4.5,4.6,6.7,8.5,6.7s6.7-2.2,8.5-6.7l26.6-68.5a8.78,8.78,0,0,0,.7-2.8A6.69,6.69,0,0,0,363,71.8Z"/><path class="cls-2" d="M314.05,169.1a10,10,0,0,0-8.1-3.5h-.5a12.31,12.31,0,0,1-7.9-2.6,7.77,7.77,0,0,1-3.2-6.4V123.4c0-6.7-2.9-12.4-8.6-17s-12.8-6.9-21.1-6.9-15.4,2.3-21.1,6.9-8.6,10.3-8.6,17v22.4a7.36,7.36,0,0,0,2.5,5.9,9.72,9.72,0,0,0,6.7,2.3,9.9,9.9,0,0,0,6.7-2.3,7.64,7.64,0,0,0,2.6-6v-26a8.38,8.38,0,0,1,3.1-6.7,11.22,11.22,0,0,1,7.6-2.7,10.76,10.76,0,0,1,7.5,2.8,8.52,8.52,0,0,1,3.1,6.7v35.3a23.26,23.26,0,0,0,8.2,18.2c5.4,4.9,12.2,7.3,20.3,7.3H306a10.33,10.33,0,0,0,6.7-2.1c2.1-1.7,2.9-3.9,2.5-6.9A4.72,4.72,0,0,0,314.05,169.1Z"/><path class="cls-2" d="M363,71.8a10,10,0,0,0-6.5-2.2c-4.1,0-6.8,1.8-8.3,5.4L330,121.6,312,75c-1.4-3.6-4.2-5.4-8.3-5.4a9.85,9.85,0,0,0-6.5,2.2,6.69,6.69,0,0,0-2.8,5.5,9.18,9.18,0,0,0,.5,2.8l26.6,68.5c1.8,4.5,4.6,6.7,8.5,6.7s6.7-2.2,8.5-6.7l26.6-68.5a8.78,8.78,0,0,0,.7-2.8A6.69,6.69,0,0,0,363,71.8Z"/><path class="cls-3" d="M314.05,169.1a10,10,0,0,0-8.1-3.5h-.5a12.31,12.31,0,0,1-7.9-2.6,7.77,7.77,0,0,1-3.2-6.4V123.4c0-6.7-2.9-12.4-8.6-17s-12.8-6.9-21.1-6.9-15.4,2.3-21.1,6.9-8.6,10.3-8.6,17v22.4a7.36,7.36,0,0,0,2.5,5.9,9.72,9.72,0,0,0,6.7,2.3,9.9,9.9,0,0,0,6.7-2.3,7.64,7.64,0,0,0,2.6-6v-26a8.38,8.38,0,0,1,3.1-6.7,11.22,11.22,0,0,1,7.6-2.7,10.76,10.76,0,0,1,7.5,2.8,8.52,8.52,0,0,1,3.1,6.7v35.3a23.26,23.26,0,0,0,8.2,18.2c5.4,4.9,12.2,7.3,20.3,7.3H306a10.33,10.33,0,0,0,6.7-2.1c2.1-1.7,2.9-3.9,2.5-6.9A4.72,4.72,0,0,0,314.05,169.1Z"/><path class="cls-3" d="M363,71.8a10,10,0,0,0-6.5-2.2c-4.1,0-6.8,1.8-8.3,5.4L330,121.6,312,75c-1.4-3.6-4.2-5.4-8.3-5.4a9.85,9.85,0,0,0-6.5,2.2,6.69,6.69,0,0,0-2.8,5.5,9.18,9.18,0,0,0,.5,2.8l26.6,68.5c1.8,4.5,4.6,6.7,8.5,6.7s6.7-2.2,8.5-6.7l26.6-68.5a8.78,8.78,0,0,0,.7-2.8A6.69,6.69,0,0,0,363,71.8Z"/><path d="M313.15,169.4c-1.9-2.3-4.6-3.5-8.2-3.5h-.6a12.59,12.59,0,0,1-8-2.6,7.87,7.87,0,0,1-3.3-6.4V123.7c0-6.7-2.9-12.4-8.7-17s-12.9-6.9-21.3-6.9-15.5,2.3-21.3,6.9-8.7,10.3-8.7,17v22.4a7.44,7.44,0,0,0,2.6,5.9,9.9,9.9,0,0,0,6.7,2.3,10.17,10.17,0,0,0,6.8-2.3,7.34,7.34,0,0,0,2.6-6V120a8.38,8.38,0,0,1,3.1-6.7,11.49,11.49,0,0,1,7.7-2.7,11,11,0,0,1,7.6,2.8,8.52,8.52,0,0,1,3.1,6.7v35.3a23.26,23.26,0,0,0,8.2,18.2c5.5,4.9,12.3,7.3,20.5,7.3h2.7a10.61,10.61,0,0,0,6.8-2.1,6.75,6.75,0,0,0,2.5-6.9A2.94,2.94,0,0,0,313.15,169.4Z"/><path d="M362.55,72.1a10.3,10.3,0,0,0-6.6-2.2c-4.1,0-6.9,1.8-8.3,5.4l-18.3,46.6-18.2-46.6c-1.4-3.6-4.2-5.4-8.3-5.4a10.3,10.3,0,0,0-6.6,2.2,6.69,6.69,0,0,0-2.8,5.5,9.18,9.18,0,0,0,.5,2.8l26.9,68.5c1.8,4.5,4.6,6.7,8.6,6.7s6.8-2.2,8.6-6.7l26.8-68.5a8.78,8.78,0,0,0,.7-2.8A7.5,7.5,0,0,0,362.55,72.1Z"/><path class="cls-2" d="M313.15,169.4c-1.9-2.3-4.6-3.5-8.2-3.5h-.6a12.59,12.59,0,0,1-8-2.6,7.87,7.87,0,0,1-3.3-6.4V123.7c0-6.7-2.9-12.4-8.7-17s-12.9-6.9-21.3-6.9-15.5,2.3-21.3,6.9-8.7,10.3-8.7,17v22.4a7.44,7.44,0,0,0,2.6,5.9,9.9,9.9,0,0,0,6.7,2.3,10.17,10.17,0,0,0,6.8-2.3,7.34,7.34,0,0,0,2.6-6V120a8.38,8.38,0,0,1,3.1-6.7,11.49,11.49,0,0,1,7.7-2.7,11,11,0,0,1,7.6,2.8,8.52,8.52,0,0,1,3.1,6.7v35.3a23.26,23.26,0,0,0,8.2,18.2c5.5,4.9,12.3,7.3,20.5,7.3h2.7a10.61,10.61,0,0,0,6.8-2.1,6.75,6.75,0,0,0,2.5-6.9A2.94,2.94,0,0,0,313.15,169.4Z"/><path class="cls-2" d="M362.55,72.1a10.3,10.3,0,0,0-6.6-2.2c-4.1,0-6.9,1.8-8.3,5.4l-18.3,46.6-18.2-46.6c-1.4-3.6-4.2-5.4-8.3-5.4a10.3,10.3,0,0,0-6.6,2.2,6.69,6.69,0,0,0-2.8,5.5,9.18,9.18,0,0,0,.5,2.8l26.9,68.5c1.8,4.5,4.6,6.7,8.6,6.7s6.8-2.2,8.6-6.7l26.8-68.5a8.78,8.78,0,0,0,.7-2.8A7.5,7.5,0,0,0,362.55,72.1Z"/><path class="cls-3" d="M313.15,169.4c-1.9-2.3-4.6-3.5-8.2-3.5h-.6a12.59,12.59,0,0,1-8-2.6,7.87,7.87,0,0,1-3.3-6.4V123.7c0-6.7-2.9-12.4-8.7-17s-12.9-6.9-21.3-6.9-15.5,2.3-21.3,6.9-8.7,10.3-8.7,17v22.4a7.44,7.44,0,0,0,2.6,5.9,9.9,9.9,0,0,0,6.7,2.3,10.17,10.17,0,0,0,6.8-2.3,7.34,7.34,0,0,0,2.6-6V120a8.38,8.38,0,0,1,3.1-6.7,11.49,11.49,0,0,1,7.7-2.7,11,11,0,0,1,7.6,2.8,8.52,8.52,0,0,1,3.1,6.7v35.3a23.26,23.26,0,0,0,8.2,18.2c5.5,4.9,12.3,7.3,20.5,7.3h2.7a10.61,10.61,0,0,0,6.8-2.1,6.75,6.75,0,0,0,2.5-6.9A2.94,2.94,0,0,0,313.15,169.4Z"/><path class="cls-3" d="M362.55,72.1a10.3,10.3,0,0,0-6.6-2.2c-4.1,0-6.9,1.8-8.3,5.4l-18.3,46.6-18.2-46.6c-1.4-3.6-4.2-5.4-8.3-5.4a10.3,10.3,0,0,0-6.6,2.2,6.69,6.69,0,0,0-2.8,5.5,9.18,9.18,0,0,0,.5,2.8l26.9,68.5c1.8,4.5,4.6,6.7,8.6,6.7s6.8-2.2,8.6-6.7l26.8-68.5a8.78,8.78,0,0,0,.7-2.8A7.5,7.5,0,0,0,362.55,72.1Z"/><path d="M312.25,169.7c-1.9-2.3-4.7-3.5-8.3-3.5h-.6a12.88,12.88,0,0,1-8.1-2.6,7.87,7.87,0,0,1-3.3-6.4V124c0-6.7-2.9-12.4-8.8-17s-13-6.9-21.5-6.9-15.7,2.3-21.5,6.9-8.8,10.3-8.8,17v22.4a7.44,7.44,0,0,0,2.6,5.9,10,10,0,0,0,6.8,2.3,10.44,10.44,0,0,0,6.9-2.3,7.42,7.42,0,0,0,2.7-6v-26a8.48,8.48,0,0,1,3.2-6.7,11.57,11.57,0,0,1,7.8-2.7,10.83,10.83,0,0,1,7.6,2.8,8.62,8.62,0,0,1,3.2,6.7v35.3a23.35,23.35,0,0,0,8.3,18.2c5.6,4.9,12.4,7.3,20.7,7.3H304a10.91,10.91,0,0,0,6.9-2.1,6.75,6.75,0,0,0,2.5-6.9A4.72,4.72,0,0,0,312.25,169.7Z"/><path d="M362.05,72.4a10.3,10.3,0,0,0-6.6-2.2q-6.3,0-8.4,5.4l-18.5,46.5-18.3-46.6c-1.4-3.6-4.3-5.4-8.4-5.4a10.3,10.3,0,0,0-6.6,2.2,6.69,6.69,0,0,0-2.8,5.5,9.18,9.18,0,0,0,.5,2.8l27.1,68.5c1.8,4.5,4.7,6.7,8.6,6.7s6.8-2.2,8.6-6.7l27-68.5a6.31,6.31,0,0,0-2.2-8.2Z"/><path class="cls-2" d="M312.25,169.7c-1.9-2.3-4.7-3.5-8.3-3.5h-.6a12.88,12.88,0,0,1-8.1-2.6,7.87,7.87,0,0,1-3.3-6.4V124c0-6.7-2.9-12.4-8.8-17s-13-6.9-21.5-6.9-15.7,2.3-21.5,6.9-8.8,10.3-8.8,17v22.4a7.44,7.44,0,0,0,2.6,5.9,10,10,0,0,0,6.8,2.3,10.44,10.44,0,0,0,6.9-2.3,7.42,7.42,0,0,0,2.7-6v-26a8.48,8.48,0,0,1,3.2-6.7,11.57,11.57,0,0,1,7.8-2.7,10.83,10.83,0,0,1,7.6,2.8,8.62,8.62,0,0,1,3.2,6.7v35.3a23.35,23.35,0,0,0,8.3,18.2c5.6,4.9,12.4,7.3,20.7,7.3H304a10.91,10.91,0,0,0,6.9-2.1,6.75,6.75,0,0,0,2.5-6.9A4.72,4.72,0,0,0,312.25,169.7Z"/><path class="cls-2" d="M362.05,72.4a10.3,10.3,0,0,0-6.6-2.2q-6.3,0-8.4,5.4l-18.5,46.5-18.3-46.6c-1.4-3.6-4.3-5.4-8.4-5.4a10.3,10.3,0,0,0-6.6,2.2,6.69,6.69,0,0,0-2.8,5.5,9.18,9.18,0,0,0,.5,2.8l27.1,68.5c1.8,4.5,4.7,6.7,8.6,6.7s6.8-2.2,8.6-6.7l27-68.5a6.31,6.31,0,0,0-2.2-8.2Z"/><path class="cls-3" d="M312.25,169.7c-1.9-2.3-4.7-3.5-8.3-3.5h-.6a12.88,12.88,0,0,1-8.1-2.6,7.87,7.87,0,0,1-3.3-6.4V124c0-6.7-2.9-12.4-8.8-17s-13-6.9-21.5-6.9-15.7,2.3-21.5,6.9-8.8,10.3-8.8,17v22.4a7.44,7.44,0,0,0,2.6,5.9,10,10,0,0,0,6.8,2.3,10.44,10.44,0,0,0,6.9-2.3,7.42,7.42,0,0,0,2.7-6v-26a8.48,8.48,0,0,1,3.2-6.7,11.57,11.57,0,0,1,7.8-2.7,10.83,10.83,0,0,1,7.6,2.8,8.62,8.62,0,0,1,3.2,6.7v35.3a23.35,23.35,0,0,0,8.3,18.2c5.6,4.9,12.4,7.3,20.7,7.3H304a10.91,10.91,0,0,0,6.9-2.1,6.75,6.75,0,0,0,2.5-6.9A4.72,4.72,0,0,0,312.25,169.7Z"/><path class="cls-3" d="M362.05,72.4a10.3,10.3,0,0,0-6.6-2.2q-6.3,0-8.4,5.4l-18.5,46.5-18.3-46.6c-1.4-3.6-4.3-5.4-8.4-5.4a10.3,10.3,0,0,0-6.6,2.2,6.69,6.69,0,0,0-2.8,5.5,9.18,9.18,0,0,0,.5,2.8l27.1,68.5c1.8,4.5,4.7,6.7,8.6,6.7s6.8-2.2,8.6-6.7l27-68.5a6.31,6.31,0,0,0-2.2-8.2Z"/><path d="M311.35,170c-1.9-2.3-4.7-3.5-8.4-3.5h-.6a12.88,12.88,0,0,1-8.1-2.6,7.87,7.87,0,0,1-3.3-6.4V124.3c0-6.7-2.9-12.4-8.8-17s-13.1-6.9-21.7-6.9-15.8,2.3-21.7,6.9-8.8,10.3-8.8,17v22.4a7.44,7.44,0,0,0,2.6,5.9,10.08,10.08,0,0,0,6.9,2.3,10.44,10.44,0,0,0,6.9-2.3,7.42,7.42,0,0,0,2.7-6v-26a8.48,8.48,0,0,1,3.2-6.7,11.57,11.57,0,0,1,7.8-2.7,11.08,11.08,0,0,1,7.7,2.8,8.62,8.62,0,0,1,3.2,6.7V156a23.13,23.13,0,0,0,8.4,18.2c5.6,4.9,12.6,7.3,20.9,7.3h2.8a10.91,10.91,0,0,0,6.9-2.1c2.2-1.7,3-3.9,2.6-6.9A7.16,7.16,0,0,0,311.35,170Z"/><path d="M361.65,72.7a10.39,10.39,0,0,0-6.7-2.2c-4.2,0-7,1.8-8.5,5.4l-18.7,46.6-18.5-46.6c-1.5-3.6-4.3-5.4-8.5-5.4a10.39,10.39,0,0,0-6.7,2.2,6.79,6.79,0,0,0-2.9,5.5,9.18,9.18,0,0,0,.5,2.8l27.4,68.5c1.8,4.5,4.7,6.7,8.7,6.7s6.9-2.2,8.7-6.7l27.4-68.4a6.74,6.74,0,0,0,.7-2.8A7,7,0,0,0,361.65,72.7Z"/><path class="cls-2" d="M311.35,170c-1.9-2.3-4.7-3.5-8.4-3.5h-.6a12.88,12.88,0,0,1-8.1-2.6,7.87,7.87,0,0,1-3.3-6.4V124.3c0-6.7-2.9-12.4-8.8-17s-13.1-6.9-21.7-6.9-15.8,2.3-21.7,6.9-8.8,10.3-8.8,17v22.4a7.44,7.44,0,0,0,2.6,5.9,10.08,10.08,0,0,0,6.9,2.3,10.44,10.44,0,0,0,6.9-2.3,7.42,7.42,0,0,0,2.7-6v-26a8.48,8.48,0,0,1,3.2-6.7,11.57,11.57,0,0,1,7.8-2.7,11.08,11.08,0,0,1,7.7,2.8,8.62,8.62,0,0,1,3.2,6.7V156a23.13,23.13,0,0,0,8.4,18.2c5.6,4.9,12.6,7.3,20.9,7.3h2.8a10.91,10.91,0,0,0,6.9-2.1c2.2-1.7,3-3.9,2.6-6.9A7.16,7.16,0,0,0,311.35,170Z"/><path class="cls-2" d="M361.65,72.7a10.39,10.39,0,0,0-6.7-2.2c-4.2,0-7,1.8-8.5,5.4l-18.7,46.6-18.5-46.6c-1.5-3.6-4.3-5.4-8.5-5.4a10.39,10.39,0,0,0-6.7,2.2,6.79,6.79,0,0,0-2.9,5.5,9.18,9.18,0,0,0,.5,2.8l27.4,68.5c1.8,4.5,4.7,6.7,8.7,6.7s6.9-2.2,8.7-6.7l27.4-68.4a6.74,6.74,0,0,0,.7-2.8A7,7,0,0,0,361.65,72.7Z"/><path class="cls-3" d="M311.35,170c-1.9-2.3-4.7-3.5-8.4-3.5h-.6a12.88,12.88,0,0,1-8.1-2.6,7.87,7.87,0,0,1-3.3-6.4V124.3c0-6.7-2.9-12.4-8.8-17s-13.1-6.9-21.7-6.9-15.8,2.3-21.7,6.9-8.8,10.3-8.8,17v22.4a7.44,7.44,0,0,0,2.6,5.9,10.08,10.08,0,0,0,6.9,2.3,10.44,10.44,0,0,0,6.9-2.3,7.42,7.42,0,0,0,2.7-6v-26a8.48,8.48,0,0,1,3.2-6.7,11.57,11.57,0,0,1,7.8-2.7,11.08,11.08,0,0,1,7.7,2.8,8.62,8.62,0,0,1,3.2,6.7V156a23.13,23.13,0,0,0,8.4,18.2c5.6,4.9,12.6,7.3,20.9,7.3h2.8a10.91,10.91,0,0,0,6.9-2.1c2.2-1.7,3-3.9,2.6-6.9A7.16,7.16,0,0,0,311.35,170Z"/><path class="cls-3" d="M361.65,72.7a10.39,10.39,0,0,0-6.7-2.2c-4.2,0-7,1.8-8.5,5.4l-18.7,46.6-18.5-46.6c-1.5-3.6-4.3-5.4-8.5-5.4a10.39,10.39,0,0,0-6.7,2.2,6.79,6.79,0,0,0-2.9,5.5,9.18,9.18,0,0,0,.5,2.8l27.4,68.5c1.8,4.5,4.7,6.7,8.7,6.7s6.9-2.2,8.7-6.7l27.4-68.4a6.74,6.74,0,0,0,.7-2.8A7,7,0,0,0,361.65,72.7Z"/><path d="M310.45,170.3c-1.9-2.3-4.8-3.5-8.4-3.5h-.6a13.17,13.17,0,0,1-8.2-2.6,8,8,0,0,1-3.4-6.4V124.6c0-6.7-3-12.4-8.9-17s-13.3-6.9-21.9-6.9-16,2.3-21.9,6.9-8.9,10.3-8.9,17v22.5a7.44,7.44,0,0,0,2.6,5.9,11.65,11.65,0,0,0,13.9,0,7.42,7.42,0,0,0,2.7-6V121a8.48,8.48,0,0,1,3.2-6.7,12,12,0,0,1,7.9-2.7,11.51,11.51,0,0,1,7.8,2.8,8.32,8.32,0,0,1,3.2,6.7v35.3a22.92,22.92,0,0,0,8.5,18.2c5.7,4.9,12.7,7.3,21.1,7.3H302a11,11,0,0,0,7-2.1,6.63,6.63,0,0,0,2.6-6.9A5.41,5.41,0,0,0,310.45,170.3Z"/><path d="M361.15,73a10.67,10.67,0,0,0-6.8-2.2c-4.2,0-7.1,1.8-8.6,5.4l-18.9,46.6-18.5-46.6c-1.5-3.6-4.3-5.4-8.6-5.4A10.86,10.86,0,0,0,293,73a6.79,6.79,0,0,0-2.9,5.5,9.18,9.18,0,0,0,.5,2.8l27.7,68.5c1.8,4.5,4.8,6.7,8.8,6.7s7-2.2,8.8-6.7l27.5-68.4a6.56,6.56,0,0,0-2.2-8.4Z"/><path class="cls-2" d="M310.45,170.3c-1.9-2.3-4.8-3.5-8.4-3.5h-.6a13.17,13.17,0,0,1-8.2-2.6,8,8,0,0,1-3.4-6.4V124.6c0-6.7-3-12.4-8.9-17s-13.3-6.9-21.9-6.9-16,2.3-21.9,6.9-8.9,10.3-8.9,17v22.5a7.44,7.44,0,0,0,2.6,5.9,11.65,11.65,0,0,0,13.9,0,7.42,7.42,0,0,0,2.7-6V121a8.48,8.48,0,0,1,3.2-6.7,12,12,0,0,1,7.9-2.7,11.51,11.51,0,0,1,7.8,2.8,8.32,8.32,0,0,1,3.2,6.7v35.3a22.92,22.92,0,0,0,8.5,18.2c5.7,4.9,12.7,7.3,21.1,7.3H302a11,11,0,0,0,7-2.1,6.63,6.63,0,0,0,2.6-6.9A5.41,5.41,0,0,0,310.45,170.3Z"/><path class="cls-2" d="M361.15,73a10.67,10.67,0,0,0-6.8-2.2c-4.2,0-7.1,1.8-8.6,5.4l-18.9,46.6-18.5-46.6c-1.5-3.6-4.3-5.4-8.6-5.4A10.86,10.86,0,0,0,293,73a6.79,6.79,0,0,0-2.9,5.5,9.18,9.18,0,0,0,.5,2.8l27.7,68.5c1.8,4.5,4.8,6.7,8.8,6.7s7-2.2,8.8-6.7l27.5-68.4a6.56,6.56,0,0,0-2.2-8.4Z"/><path class="cls-3" d="M310.45,170.3c-1.9-2.3-4.8-3.5-8.4-3.5h-.6a13.17,13.17,0,0,1-8.2-2.6,8,8,0,0,1-3.4-6.4V124.6c0-6.7-3-12.4-8.9-17s-13.3-6.9-21.9-6.9-16,2.3-21.9,6.9-8.9,10.3-8.9,17v22.5a7.44,7.44,0,0,0,2.6,5.9,11.65,11.65,0,0,0,13.9,0,7.42,7.42,0,0,0,2.7-6V121a8.48,8.48,0,0,1,3.2-6.7,12,12,0,0,1,7.9-2.7,11.51,11.51,0,0,1,7.8,2.8,8.32,8.32,0,0,1,3.2,6.7v35.3a22.92,22.92,0,0,0,8.5,18.2c5.7,4.9,12.7,7.3,21.1,7.3H302a11,11,0,0,0,7-2.1,6.63,6.63,0,0,0,2.6-6.9A5.41,5.41,0,0,0,310.45,170.3Z"/><path class="cls-3" d="M361.15,73a10.67,10.67,0,0,0-6.8-2.2c-4.2,0-7.1,1.8-8.6,5.4l-18.9,46.6-18.5-46.6c-1.5-3.6-4.3-5.4-8.6-5.4A10.86,10.86,0,0,0,293,73a6.79,6.79,0,0,0-2.9,5.5,9.18,9.18,0,0,0,.5,2.8l27.7,68.5c1.8,4.5,4.8,6.7,8.8,6.7s7-2.2,8.8-6.7l27.5-68.4a6.56,6.56,0,0,0-2.2-8.4Z"/><path d="M309.55,170.7c-2-2.3-4.8-3.5-8.5-3.5h-.6a13.47,13.47,0,0,1-8.3-2.6,7.72,7.72,0,0,1-3.4-6.4V125c0-6.7-3-12.4-9-17s-13.4-6.9-22.1-6.9-16.1,2.3-22.1,6.9-9,10.3-9,17v22.4a7.22,7.22,0,0,0,2.7,5.9,10.53,10.53,0,0,0,7,2.3,11,11,0,0,0,7.1-2.3,7.42,7.42,0,0,0,2.7-6v-26a8.28,8.28,0,0,1,3.3-6.7,12.1,12.1,0,0,1,8-2.7,11.16,11.16,0,0,1,7.8,2.8,8.42,8.42,0,0,1,3.3,6.7v35.3c0,7.3,2.9,13.3,8.6,18.2s12.8,7.3,21.3,7.3h2.8a11.51,11.51,0,0,0,7.1-2.1,6.63,6.63,0,0,0,2.6-6.9A7.45,7.45,0,0,0,309.55,170.7Z"/><path d="M360.75,73.3a10.67,10.67,0,0,0-6.8-2.2c-4.3,0-7.2,1.8-8.6,5.4l-19,46.6-19-46.6q-2.25-5.4-8.7-5.4a10.67,10.67,0,0,0-6.8,2.2,6.79,6.79,0,0,0-2.9,5.5,7.06,7.06,0,0,0,.6,2.8l27.9,68.5c1.8,4.5,4.8,6.7,8.9,6.7s7-2.2,8.9-6.7l27.8-68.5a6.74,6.74,0,0,0,.7-2.8A7.35,7.35,0,0,0,360.75,73.3Z"/><path class="cls-2" d="M309.55,170.7c-2-2.3-4.8-3.5-8.5-3.5h-.6a13.47,13.47,0,0,1-8.3-2.6,7.72,7.72,0,0,1-3.4-6.4V125c0-6.7-3-12.4-9-17s-13.4-6.9-22.1-6.9-16.1,2.3-22.1,6.9-9,10.3-9,17v22.4a7.22,7.22,0,0,0,2.7,5.9,10.53,10.53,0,0,0,7,2.3,11,11,0,0,0,7.1-2.3,7.42,7.42,0,0,0,2.7-6v-26a8.28,8.28,0,0,1,3.3-6.7,12.1,12.1,0,0,1,8-2.7,11.16,11.16,0,0,1,7.8,2.8,8.42,8.42,0,0,1,3.3,6.7v35.3c0,7.3,2.9,13.3,8.6,18.2s12.8,7.3,21.3,7.3h2.8a11.51,11.51,0,0,0,7.1-2.1,6.63,6.63,0,0,0,2.6-6.9A7.45,7.45,0,0,0,309.55,170.7Z"/><path class="cls-2" d="M360.75,73.3a10.67,10.67,0,0,0-6.8-2.2c-4.3,0-7.2,1.8-8.6,5.4l-19,46.6-19-46.6q-2.25-5.4-8.7-5.4a10.67,10.67,0,0,0-6.8,2.2,6.79,6.79,0,0,0-2.9,5.5,7.06,7.06,0,0,0,.6,2.8l27.9,68.5c1.8,4.5,4.8,6.7,8.9,6.7s7-2.2,8.9-6.7l27.8-68.5a6.74,6.74,0,0,0,.7-2.8A7.35,7.35,0,0,0,360.75,73.3Z"/><path class="cls-3" d="M309.55,170.7c-2-2.3-4.8-3.5-8.5-3.5h-.6a13.47,13.47,0,0,1-8.3-2.6,7.72,7.72,0,0,1-3.4-6.4V125c0-6.7-3-12.4-9-17s-13.4-6.9-22.1-6.9-16.1,2.3-22.1,6.9-9,10.3-9,17v22.4a7.22,7.22,0,0,0,2.7,5.9,10.53,10.53,0,0,0,7,2.3,11,11,0,0,0,7.1-2.3,7.42,7.42,0,0,0,2.7-6v-26a8.28,8.28,0,0,1,3.3-6.7,12.1,12.1,0,0,1,8-2.7,11.16,11.16,0,0,1,7.8,2.8,8.42,8.42,0,0,1,3.3,6.7v35.3c0,7.3,2.9,13.3,8.6,18.2s12.8,7.3,21.3,7.3h2.8a11.51,11.51,0,0,0,7.1-2.1,6.63,6.63,0,0,0,2.6-6.9A7.45,7.45,0,0,0,309.55,170.7Z"/><path class="cls-3" d="M360.75,73.3a10.67,10.67,0,0,0-6.8-2.2c-4.3,0-7.2,1.8-8.6,5.4l-19,46.6-19-46.6q-2.25-5.4-8.7-5.4a10.67,10.67,0,0,0-6.8,2.2,6.79,6.79,0,0,0-2.9,5.5,7.06,7.06,0,0,0,.6,2.8l27.9,68.5c1.8,4.5,4.8,6.7,8.9,6.7s7-2.2,8.9-6.7l27.8-68.5a6.74,6.74,0,0,0,.7-2.8A7.35,7.35,0,0,0,360.75,73.3Z"/><path d="M308.55,171c-2-2.3-4.8-3.5-8.6-3.5h-.6a13.77,13.77,0,0,1-8.4-2.6,7.72,7.72,0,0,1-3.4-6.4V125.3c0-6.7-3-12.4-9.1-17s-13.5-6.9-22.3-6.9-16.3,2.3-22.3,6.9-9.1,10.3-9.1,17v22.4a7.22,7.22,0,0,0,2.7,5.9,10.62,10.62,0,0,0,7.1,2.3,10.81,10.81,0,0,0,7.1-2.3,7.5,7.5,0,0,0,2.8-6v-26a8.28,8.28,0,0,1,3.3-6.7,12.37,12.37,0,0,1,8.1-2.7,11.58,11.58,0,0,1,7.9,2.8,8.42,8.42,0,0,1,3.3,6.7V157c0,7.3,2.9,13.3,8.6,18.2s12.9,7.3,21.5,7.3h2.9a11.31,11.31,0,0,0,7.1-2.1,6.63,6.63,0,0,0,2.6-6.9A4.2,4.2,0,0,0,308.55,171Z"/><path d="M360.25,73.7a11.15,11.15,0,0,0-6.9-2.2q-6.45,0-8.7,5.4l-19.2,46.6-19-46.6q-2.25-5.4-8.7-5.4a11.15,11.15,0,0,0-6.9,2.2,6.64,6.64,0,0,0-3,5.5,7.06,7.06,0,0,0,.6,2.8l28.2,68.5c1.9,4.5,4.9,6.7,9,6.7s7.1-2.2,9-6.7l28-68.5a6.74,6.74,0,0,0,.7-2.8A7,7,0,0,0,360.25,73.7Z"/><path class="cls-2" d="M308.55,171c-2-2.3-4.8-3.5-8.6-3.5h-.6a13.77,13.77,0,0,1-8.4-2.6,7.72,7.72,0,0,1-3.4-6.4V125.3c0-6.7-3-12.4-9.1-17s-13.5-6.9-22.3-6.9-16.3,2.3-22.3,6.9-9.1,10.3-9.1,17v22.4a7.22,7.22,0,0,0,2.7,5.9,10.62,10.62,0,0,0,7.1,2.3,10.81,10.81,0,0,0,7.1-2.3,7.5,7.5,0,0,0,2.8-6v-26a8.28,8.28,0,0,1,3.3-6.7,12.37,12.37,0,0,1,8.1-2.7,11.58,11.58,0,0,1,7.9,2.8,8.42,8.42,0,0,1,3.3,6.7V157c0,7.3,2.9,13.3,8.6,18.2s12.9,7.3,21.5,7.3h2.9a11.31,11.31,0,0,0,7.1-2.1,6.63,6.63,0,0,0,2.6-6.9A4.2,4.2,0,0,0,308.55,171Z"/><path class="cls-2" d="M360.25,73.7a11.15,11.15,0,0,0-6.9-2.2q-6.45,0-8.7,5.4l-19.2,46.6-19-46.6q-2.25-5.4-8.7-5.4a11.15,11.15,0,0,0-6.9,2.2,6.64,6.64,0,0,0-3,5.5,7.06,7.06,0,0,0,.6,2.8l28.2,68.5c1.9,4.5,4.9,6.7,9,6.7s7.1-2.2,9-6.7l28-68.5a6.74,6.74,0,0,0,.7-2.8A7,7,0,0,0,360.25,73.7Z"/><path class="cls-3" d="M308.55,171c-2-2.3-4.8-3.5-8.6-3.5h-.6a13.77,13.77,0,0,1-8.4-2.6,7.72,7.72,0,0,1-3.4-6.4V125.3c0-6.7-3-12.4-9.1-17s-13.5-6.9-22.3-6.9-16.3,2.3-22.3,6.9-9.1,10.3-9.1,17v22.4a7.22,7.22,0,0,0,2.7,5.9,10.62,10.62,0,0,0,7.1,2.3,10.81,10.81,0,0,0,7.1-2.3,7.5,7.5,0,0,0,2.8-6v-26a8.28,8.28,0,0,1,3.3-6.7,12.37,12.37,0,0,1,8.1-2.7,11.58,11.58,0,0,1,7.9,2.8,8.42,8.42,0,0,1,3.3,6.7V157c0,7.3,2.9,13.3,8.6,18.2s12.9,7.3,21.5,7.3h2.9a11.31,11.31,0,0,0,7.1-2.1,6.63,6.63,0,0,0,2.6-6.9A4.2,4.2,0,0,0,308.55,171Z"/><path class="cls-3" d="M360.25,73.7a11.15,11.15,0,0,0-6.9-2.2q-6.45,0-8.7,5.4l-19.2,46.6-19-46.6q-2.25-5.4-8.7-5.4a11.15,11.15,0,0,0-6.9,2.2,6.64,6.64,0,0,0-3,5.5,7.06,7.06,0,0,0,.6,2.8l28.2,68.5c1.9,4.5,4.9,6.7,9,6.7s7.1-2.2,9-6.7l28-68.5a6.74,6.74,0,0,0,.7-2.8A7,7,0,0,0,360.25,73.7Z"/><path d="M307.65,171.3c-2-2.3-4.9-3.5-8.7-3.5h-.6a13.77,13.77,0,0,1-8.4-2.6,7.72,7.72,0,0,1-3.4-6.4V125.6c0-6.7-3.1-12.4-9.2-17s-13.6-6.9-22.5-6.9-16.4,2.3-22.5,6.9-9.2,10.3-9.2,17v22.5a7.22,7.22,0,0,0,2.7,5.9,10.81,10.81,0,0,0,7.1,2.3,11.29,11.29,0,0,0,7.2-2.3,7.22,7.22,0,0,0,2.8-6V122a8.28,8.28,0,0,1,3.3-6.7,12.37,12.37,0,0,1,8.1-2.7,11.84,11.84,0,0,1,8,2.8,8.42,8.42,0,0,1,3.3,6.7v35.3c0,7.3,2.9,13.3,8.7,18.2s13,7.3,21.7,7.3H299a11.81,11.81,0,0,0,7.2-2.1,6.86,6.86,0,0,0,2.7-6.9A5.68,5.68,0,0,0,307.65,171.3Z"/><path d="M359.85,74a11.24,11.24,0,0,0-7-2.2c-4.4,0-7.3,1.8-8.8,5.4l-19.4,46.6-19.2-46.7c-1.5-3.6-4.5-5.4-8.8-5.4a11.24,11.24,0,0,0-7,2.2,6.64,6.64,0,0,0-3,5.5,7.06,7.06,0,0,0,.6,2.8l28.4,68.5c1.9,4.5,4.9,6.7,9.1,6.7s7.2-2.2,9.1-6.7l28.3-68.5a6.74,6.74,0,0,0,.7-2.8A7.16,7.16,0,0,0,359.85,74Z"/><path class="cls-2" d="M307.65,171.3c-2-2.3-4.9-3.5-8.7-3.5h-.6a13.77,13.77,0,0,1-8.4-2.6,7.72,7.72,0,0,1-3.4-6.4V125.6c0-6.7-3.1-12.4-9.2-17s-13.6-6.9-22.5-6.9-16.4,2.3-22.5,6.9-9.2,10.3-9.2,17v22.5a7.22,7.22,0,0,0,2.7,5.9,10.81,10.81,0,0,0,7.1,2.3,11.29,11.29,0,0,0,7.2-2.3,7.22,7.22,0,0,0,2.8-6V122a8.28,8.28,0,0,1,3.3-6.7,12.37,12.37,0,0,1,8.1-2.7,11.84,11.84,0,0,1,8,2.8,8.42,8.42,0,0,1,3.3,6.7v35.3c0,7.3,2.9,13.3,8.7,18.2s13,7.3,21.7,7.3H299a11.81,11.81,0,0,0,7.2-2.1,6.86,6.86,0,0,0,2.7-6.9A5.68,5.68,0,0,0,307.65,171.3Z"/><path class="cls-2" d="M359.85,74a11.24,11.24,0,0,0-7-2.2c-4.4,0-7.3,1.8-8.8,5.4l-19.4,46.6-19.2-46.7c-1.5-3.6-4.5-5.4-8.8-5.4a11.24,11.24,0,0,0-7,2.2,6.64,6.64,0,0,0-3,5.5,7.06,7.06,0,0,0,.6,2.8l28.4,68.5c1.9,4.5,4.9,6.7,9.1,6.7s7.2-2.2,9.1-6.7l28.3-68.5a6.74,6.74,0,0,0,.7-2.8A7.16,7.16,0,0,0,359.85,74Z"/><path class="cls-3" d="M307.65,171.3c-2-2.3-4.9-3.5-8.7-3.5h-.6a13.77,13.77,0,0,1-8.4-2.6,7.72,7.72,0,0,1-3.4-6.4V125.6c0-6.7-3.1-12.4-9.2-17s-13.6-6.9-22.5-6.9-16.4,2.3-22.5,6.9-9.2,10.3-9.2,17v22.5a7.22,7.22,0,0,0,2.7,5.9,10.81,10.81,0,0,0,7.1,2.3,11.29,11.29,0,0,0,7.2-2.3,7.22,7.22,0,0,0,2.8-6V122a8.28,8.28,0,0,1,3.3-6.7,12.37,12.37,0,0,1,8.1-2.7,11.84,11.84,0,0,1,8,2.8,8.42,8.42,0,0,1,3.3,6.7v35.3c0,7.3,2.9,13.3,8.7,18.2s13,7.3,21.7,7.3H299a11.81,11.81,0,0,0,7.2-2.1,6.86,6.86,0,0,0,2.7-6.9A5.68,5.68,0,0,0,307.65,171.3Z"/><path class="cls-3" d="M359.85,74a11.24,11.24,0,0,0-7-2.2c-4.4,0-7.3,1.8-8.8,5.4l-19.4,46.6-19.2-46.7c-1.5-3.6-4.5-5.4-8.8-5.4a11.24,11.24,0,0,0-7,2.2,6.64,6.64,0,0,0-3,5.5,7.06,7.06,0,0,0,.6,2.8l28.4,68.5c1.9,4.5,4.9,6.7,9.1,6.7s7.2-2.2,9.1-6.7l28.3-68.5a6.74,6.74,0,0,0,.7-2.8A7.16,7.16,0,0,0,359.85,74Z"/><path d="M306.65,171.6c-2-2.3-4.9-3.5-8.8-3.5h-.5a13.86,13.86,0,0,1-8.5-2.6,7.82,7.82,0,0,1-3.5-6.4V125.9c0-6.7-3.1-12.4-9.3-17s-13.8-6.9-22.7-6.9-16.6,2.3-22.7,6.9-9.3,10.3-9.3,17v22.4a7.22,7.22,0,0,0,2.7,5.9,10.91,10.91,0,0,0,7.2,2.3,11.38,11.38,0,0,0,7.3-2.3,7.22,7.22,0,0,0,2.8-6v-26a8.11,8.11,0,0,1,3.4-6.7,12.65,12.65,0,0,1,8.2-2.7,12.29,12.29,0,0,1,8.1,2.8,8.53,8.53,0,0,1,3.4,6.7v35.3c0,7.3,2.9,13.3,8.8,18.2s13.2,7.3,21.9,7.3h2.9a11.92,11.92,0,0,0,7.3-2.1,6.52,6.52,0,0,0,2.7-6.9A6.21,6.21,0,0,0,306.65,171.6Z"/><path d="M359.35,74.3a11.24,11.24,0,0,0-7-2.2c-4.4,0-7.4,1.8-8.9,5.4l-19.6,46.6-19.4-46.6c-1.5-3.6-4.5-5.4-8.9-5.4a11.24,11.24,0,0,0-7,2.2,6.64,6.64,0,0,0-3,5.5,7.06,7.06,0,0,0,.6,2.8l28.7,68.5c1.9,4.5,5,6.7,9.1,6.7s7.2-2.2,9.1-6.7l28.6-68.5a6.74,6.74,0,0,0,.7-2.8A6.64,6.64,0,0,0,359.35,74.3Z"/><path class="cls-2" d="M306.65,171.6c-2-2.3-4.9-3.5-8.8-3.5h-.5a13.86,13.86,0,0,1-8.5-2.6,7.82,7.82,0,0,1-3.5-6.4V125.9c0-6.7-3.1-12.4-9.3-17s-13.8-6.9-22.7-6.9-16.6,2.3-22.7,6.9-9.3,10.3-9.3,17v22.4a7.22,7.22,0,0,0,2.7,5.9,10.91,10.91,0,0,0,7.2,2.3,11.38,11.38,0,0,0,7.3-2.3,7.22,7.22,0,0,0,2.8-6v-26a8.11,8.11,0,0,1,3.4-6.7,12.65,12.65,0,0,1,8.2-2.7,12.29,12.29,0,0,1,8.1,2.8,8.53,8.53,0,0,1,3.4,6.7v35.3c0,7.3,2.9,13.3,8.8,18.2s13.2,7.3,21.9,7.3h2.9a11.92,11.92,0,0,0,7.3-2.1,6.52,6.52,0,0,0,2.7-6.9A6.21,6.21,0,0,0,306.65,171.6Z"/><path class="cls-2" d="M359.35,74.3a11.24,11.24,0,0,0-7-2.2c-4.4,0-7.4,1.8-8.9,5.4l-19.6,46.6-19.4-46.6c-1.5-3.6-4.5-5.4-8.9-5.4a11.24,11.24,0,0,0-7,2.2,6.64,6.64,0,0,0-3,5.5,7.06,7.06,0,0,0,.6,2.8l28.7,68.5c1.9,4.5,5,6.7,9.1,6.7s7.2-2.2,9.1-6.7l28.6-68.5a6.74,6.74,0,0,0,.7-2.8A6.64,6.64,0,0,0,359.35,74.3Z"/><path class="cls-3" d="M306.65,171.6c-2-2.3-4.9-3.5-8.8-3.5h-.5a13.86,13.86,0,0,1-8.5-2.6,7.82,7.82,0,0,1-3.5-6.4V125.9c0-6.7-3.1-12.4-9.3-17s-13.8-6.9-22.7-6.9-16.6,2.3-22.7,6.9-9.3,10.3-9.3,17v22.4a7.22,7.22,0,0,0,2.7,5.9,10.91,10.91,0,0,0,7.2,2.3,11.38,11.38,0,0,0,7.3-2.3,7.22,7.22,0,0,0,2.8-6v-26a8.11,8.11,0,0,1,3.4-6.7,12.65,12.65,0,0,1,8.2-2.7,12.29,12.29,0,0,1,8.1,2.8,8.53,8.53,0,0,1,3.4,6.7v35.3c0,7.3,2.9,13.3,8.8,18.2s13.2,7.3,21.9,7.3h2.9a11.92,11.92,0,0,0,7.3-2.1,6.52,6.52,0,0,0,2.7-6.9A6.21,6.21,0,0,0,306.65,171.6Z"/><path class="cls-3" d="M359.35,74.3a11.24,11.24,0,0,0-7-2.2c-4.4,0-7.4,1.8-8.9,5.4l-19.6,46.6-19.4-46.6c-1.5-3.6-4.5-5.4-8.9-5.4a11.24,11.24,0,0,0-7,2.2,6.64,6.64,0,0,0-3,5.5,7.06,7.06,0,0,0,.6,2.8l28.7,68.5c1.9,4.5,5,6.7,9.1,6.7s7.2-2.2,9.1-6.7l28.6-68.5a6.74,6.74,0,0,0,.7-2.8A6.64,6.64,0,0,0,359.35,74.3Z"/></g></g></svg>